<svg width="560" height="560" viewBox="0 0 560 560" fill="none" xmlns="http://www.w3.org/2000/svg">
<path d="M504.749 367.92C504.749 367.92 504.002 363.339 503.566 363.381L420.447 371.4C413.833 372.039 408.697 377.314 408.233 383.941L405.949 416.67L341.645 421.257L337.271 391.595C336.297 384.998 330.536 380.024 323.867 380.024H236.14C229.474 380.024 223.712 384.998 222.738 391.595L218.362 421.257L154.058 416.67L151.774 383.941C151.31 377.311 146.174 372.037 139.56 371.398L56.4002 363.381C55.9706 363.339 55.6559 367.925 55.2264 367.925L55.1138 385.912L125.542 397.27L127.849 430.29C128.315 436.975 133.709 442.38 140.399 442.86L228.959 449.178C229.295 449.201 229.625 449.215 229.956 449.215C236.611 449.215 242.363 444.239 243.337 437.641L247.838 407.12H312.172L316.672 437.641C317.644 444.236 323.403 449.212 330.067 449.212C330.393 449.212 330.72 449.201 331.039 449.178L419.611 442.86C426.298 442.38 431.694 436.975 432.161 430.29L434.465 397.27L504.864 385.862L504.749 367.92Z" fill="white"/>
<mask id="mask0_155_127" style="mask-type:alpha" maskUnits="userSpaceOnUse" x="23" y="38" width="514" height="484">
<path d="M227.918 38.6401C204.523 43.8409 181.381 51.0815 159.682 62.0026C160.179 81.1619 161.417 99.519 163.928 118.165C155.502 123.564 146.646 128.197 138.776 134.516C130.779 140.668 122.612 146.554 115.37 153.749C100.905 144.181 85.5947 135.19 69.8217 127.253C52.8201 145.55 36.9229 165.299 23.937 187.397C33.7073 203.201 43.9066 218.017 54.9196 232.076H55.2279V367.708C55.4758 367.71 55.7238 367.708 55.9694 367.764L139.118 375.781C143.474 376.201 146.887 379.707 147.191 384.072L149.755 420.777L222.286 425.951L227.283 392.075C227.931 387.683 231.698 384.427 236.141 384.427H323.865C328.306 384.427 332.073 387.683 332.721 392.075L337.718 425.951L410.255 420.777L412.817 384.072C413.122 379.707 416.534 376.203 420.889 375.781L504.005 367.764C504.25 367.764 504.496 367.708 504.744 367.708V356.885H504.776V232.089H505.085C516.1 218.03 526.293 203.215 536.067 187.41C523.086 165.311 507.18 145.562 490.178 127.266C474.41 135.203 459.094 144.195 444.628 153.763C437.39 146.568 429.237 140.682 421.229 134.531C413.361 128.21 404.494 123.577 396.084 118.179C398.588 99.5321 399.826 81.1745 400.324 62.0163C378.625 51.0957 355.485 43.8545 332.077 38.6538C322.732 54.3601 314.186 71.3681 306.743 87.9956C297.917 86.5211 289.05 85.9748 280.171 85.8689H279.998H279.83C270.935 85.9753 262.076 86.5211 253.248 87.9956C245.809 71.3681 237.268 54.3601 227.909 38.6538L227.918 38.6401ZM55.0911 385.649C55.1234 393.685 55.228 402.489 55.228 404.242C55.228 483.207 155.401 521.158 279.855 521.595H280.16C404.615 521.158 504.754 483.205 504.754 404.242C504.754 402.457 504.862 393.689 504.898 385.649L430.161 392.858L427.585 429.759C427.275 434.206 423.737 437.745 419.289 438.065L330.72 444.384H330.074C325.673 444.384 321.875 441.155 321.225 436.735L316.146 402.289H243.878L238.799 436.735C238.117 441.37 233.972 444.703 229.304 444.361L140.735 438.041C136.287 437.722 132.75 434.183 132.439 429.736L129.864 392.834L55.0911 385.649Z" fill="#478CBF"/>
</mask>
<g mask="url(#mask0_155_127)">
<path d="M82.374 39.4602H709.319V523.848H82.374V39.4602Z" fill="#A044B8"/>
<path d="M82.374 39.4602H709.319V442.606H82.374V39.4602Z" fill="#4D88EF"/>
<path d="M82.374 39.4602H709.319V361.364H82.374V39.4602Z" fill="#4BC16B"/>
<path d="M82.374 39.4602H709.319V281.654H82.374V39.4602Z" fill="#E4BB15"/>
<path d="M82.374 39.4602H709.319V200.412H82.374V39.4602Z" fill="#E18017"/>
<path d="M82.374 39.4602H709.319V120.703H82.374V39.4602Z" fill="#FD285D"/>
<path d="M190.139 21.0657H25.6577V541.584H190.139L435.777 281.325L190.139 21.0657Z" fill="#242424"/>
<path d="M166.828 36.3945H40.9863V526.255H166.828L397.137 281.325L166.828 36.3945Z" fill="#924820"/>
<path d="M128.71 36.3945H40.9863V526.255H128.71L359.019 281.325L128.71 36.3945Z" fill="#8BD5F0"/>
<path d="M90.5918 36.3945H40.9863V526.255H90.5918L320.901 281.325L90.5918 36.3945Z" fill="#FC80B6"/>
<path d="M40.9863 36.3945V526.255H52.4739L282.261 281.325L52.4739 36.3945H40.9863Z" fill="#EEEEEE"/>
<path d="M-5 543L244.143 281.325L-5 19.1272V543Z" fill="#E4BB15"/>
<path d="M236.427 26.4308L189.675 18L209.602 73.1834L253.5 89L236.427 26.4308Z" fill="#242424"/>
</g>
<path d="M212.239 287.28C212.239 314.966 189.807 337.394 162.129 337.394C134.466 337.394 112.027 314.966 112.027 287.28C112.027 259.612 134.466 237.196 162.129 237.196C189.807 237.196 212.239 259.612 212.239 287.28Z" fill="white"/>
<path d="M280.002 342.16C271.093 342.16 263.873 335.594 263.873 327.501V281.371C263.873 273.284 271.093 266.712 280.002 266.712C288.911 266.712 296.147 273.284 296.147 281.371V327.501C296.147 335.594 288.911 342.16 280.002 342.16Z" fill="white"/>
<path d="M347.763 287.28C347.763 314.966 370.195 337.394 397.877 337.394C425.538 337.394 447.975 314.966 447.975 287.28C447.975 259.612 425.538 237.195 397.877 237.195C370.195 237.195 347.763 259.612 347.763 287.28Z" fill="white"/>
<path d="M166.923 257.04C148.555 257.04 133.662 271.936 133.662 290.3C133.662 308.665 148.555 323.548 166.923 323.548C185.301 323.548 200.186 308.665 200.186 290.3C200.186 271.936 185.301 257.04 166.923 257.04ZM393.068 257.04C374.704 257.04 359.825 271.936 359.825 290.3C359.825 308.665 374.704 323.548 393.068 323.548C411.451 323.548 426.33 308.665 426.33 290.3C426.33 271.936 411.45 257.04 393.068 257.04Z" fill="#A044B8"/>
</svg>
